<?xml version="1.0" encoding="UTF-8"?>
<!-- Generator: Adobe Illustrator 24.3.0, SVG Export Plug-In . SVG Version: 6.00 Build 0)  -->
<svg version="1.1" id="圖層_1" xmlns="http://www.w3.org/2000/svg" xmlns:xlink="http://www.w3.org/1999/xlink" x="0px" y="0px" viewBox="0 0 140 135" style="enable-background:new 0 0 140 135;" xml:space="preserve">
<style type="text/css">
	.st0{fill-rule:evenodd;clip-rule:evenodd;fill:url(#SVGID_1_);enable-background:new    ;}
</style>
<linearGradient id="SVGID_1_" gradientUnits="userSpaceOnUse" x1="69.9982" y1="135" x2="69.9982" y2="1.007080e-03" gradientTransform="matrix(1 0 0 -1 0 135)">
	<stop offset="1" style="stop-color:#000000"/>
	<stop offset="1" style="stop-color:#000000;stop-opacity:0"/>
</linearGradient>
<path class="st0" d="M20.9,68.4c-1.6,4.1-1.5,11.5,8.6,16.7c-2.8-3.8-3.4-4.8-3.8-8.8c-1.3-12.4,10.1-21.2,15.7-27.6  c3.6-4.1,13.6-12.3,12.3-21.1c-0.3-0.4-0.5-0.8-0.8-1.2c-2.7,4.9-1.8,7.9-6.9,10.4c-2.7-1.4-3.7-3.3-7.3-3.8  c4.1,6.1,2.5,15.6-7.7,16.5c-7.5-3-20.2-15.2-16.1-26.8c0.9-2.1,2.1-2.9,4.2-3.8c1.3,0.3,2.6-0.1,3.8,0.8c1.2,0.8,1,1,1.5,2.3  c-0.6,1.8-1.3,3.6-1.9,5.4h1.2c14.7-10.6,4.6-28-15-27.2v1.9c6.7,0.8,12.6,3.4,12.7,10.7c-0.8,2.1-1.3,1-1.9,1.5  c-2.7-0.8-7-2.8-8.1-2.3C-8.1,22.3-1.1,54.7,20.9,68.4z M4.6,38c2.7,5.8,7.7,16.3,18.4,15.7c-0.5,2.3-2.4,5-3.8,6.5  C14,56.9,2.3,46.8,4.6,38z M128.9,11.9c-2.7,0.8-5.4,1.5-8.1,2.3c-0.6-0.4-1.3-0.8-1.9-1.2c-0.1-0.8-0.3-1.5-0.4-2.3  c3-7.4,7.5-7.6,13-9.6c-0.1-0.4-0.3-0.8-0.4-1.2h-9.6c-5.4,3.2-17.2,10.4-10.7,20.7c1.6,2.6,3.1,5.7,6.5,6.5c-1.2-4.3-3.6-9,4.2-8.4  c12.2,10.5-4.8,26-12.3,30.7c-8.4-0.7-12-7.9-8.1-15.3V33c-4.1,0.7-4.9,2.4-6.9,4.2c-3.2-2.7-5.9-5.6-6.9-10.7  c-0.4,0.1-0.8,0.3-1.2,0.4C83,47,119,55.5,114.3,77.5c-1.3,4.9-2.6,5.1-3.8,7.7c4.8-1.1,8.8-6.9,9.2-10.7c0.4-3.9,0.2-5.6,0-6.5  c4-3.3,7.7-4.5,11.9-10C141.5,45.1,144.9,23.1,128.9,11.9z M119.9,60.9c-0.9-3.5,0.2-5.1-3.7-7.6c5.2,2.2,17.7-10.4,19.9-17.6  C136.1,50.3,123.9,58.4,119.9,60.9z M126.2,80.5c0,0-0.5,6.7-1.2,9.6c-2.1,9.3-5.7,16.1-15,18.4l-0.8-0.4c0,0,2.7-3.7,1.9-11.1  c-0.5-0.1-1-0.3-1.5-0.4c-3.6,9.8-12,3.5-14.2-3.5c2.5-5.1,5.8-8,7.7-14.2h1.2c1.3,2.2,1,3.4,0.4,6.1h0.4c6.3-4.2,0.4-15.1-2.3-18.8  c-13.7-15-30.3-20.6-21.1-49.8c-0.1-0.3-0.3-0.5-0.4-0.8h-0.8c-3.4,8.5-8.1,25.9-2.3,35.3c3.4,5.5,11.3,9.6,13,16.5  c1.8,7-11.7,26.8-15.7,28.8c-0.5,0.1-1,0.3-1.5,0.4c-2-1.4-2.5-2.9-3.5-5.4h-0.8c-1.5,1.8-1.2,3.8-3.5,5c-0.6,0.1-1.3,0.3-1.9,0.4  C60.5,92.9,46,74.7,49.1,66.7c2.6-6.7,9.8-10.3,13-16.1c3.8-6.7,2-31.5-3.5-34.9c0.3,7.4,4,18.8,0.8,26.5c-3.8,9-34.2,28-26.1,41.4  c0.6,1.1,0.6,0.9,1.5,1.5h0.4c-0.4-2.1-0.8-3.2-0.4-5.4c0.8-0.3,1.5-0.5,2.3-0.8c0.3,5.9,4.3,10,7.3,13.4c-0.8,5.3-2.8,7.2-6.5,9.6  c-4.9-0.6-5.2-3.5-8.4-5.4h-0.4c0.5,4.9-2.1,6,1.9,10.7c-0.1,0.3-0.6,0.9-0.8,1.2c-11.7-1.8-16.1-13.7-15.7-27.6  c-0.3-0.1-0.5-0.3-0.8-0.4c-2.4,2.2-2,6.4-2.7,10.4c-3.2,17.9,9.4,29.7,20.3,35.3H33v-0.4l-3.1-3.1v-1.5c2-2.7,4.9,0.2,6.9-3.1  c3.6,1.9,7.5,5.6,8.1,10.4c4.3,0.8,5.4,1.8,10,5.8c-4-6.9,1.3-14.7-5.8-21.9c1.9-2,3.5-3.1,5-5.8h0.8c8.1,6,11,17.8,14.6,28.4  c0.5-0.1,1-0.3,1.5-0.4c2.5-11.9,7.8-19.9,13.8-28h0.8c0,0,0.1,3.6,5.4,5.8c-6.2,3.6-2.1,14.6-6.1,21.1c1.8,1.1,5.9-4.3,10-4.6  c1.6-4.6,3.8-9.1,8.4-10.7c1.6,2.5,3.7,1.8,6.1,2.3c0.3,0.6,0.5,1.3,0.8,1.9c-0.5,0.7-0.4,0.6-1.2,1.2c-0.6,0.8-1.3,1.5-1.9,2.3v0.4  c12.3-1.2,24.6-20.3,21.9-36C128.3,86.4,126.2,80.5,126.2,80.5z M103.2,71.7v1.2c-3-0.3-3.7,0.6-6.5,1.2c2.9-6.2,0.1-7.1-0.8-11.5  C99.3,64,101.6,68.4,103.2,71.7z M43.4,74c-2.9-0.6-3.3-1.4-6.5-1.2c0.7-4.5,4.2-7.7,6.9-10.4c1.6,1.1-1.2,3.1-1.5,4.6  C41.8,70.1,43,71.7,43.4,74z M71.4,117.7c-0.8,3.2-1.2,5.5-1.4,5.7c-1.1-6.6-4.5-12.1-7.4-16.8v-1.2c3.4-1.7,5.2-3.5,7.7-8  c0.9,4.6,3.4,6.8,7.7,8C75.1,108.2,72.1,114.5,71.4,117.7z M55.2,70.6c3.6,0.9,7.2,1.8,10.7,2.7c1.8,2.8,2.6,6.9,3.1,11.1  c0.4,0.3,0.8,0.5,1.2,0.8c1.5-2.6,2.3-7.3,2.7-10.7c2.9-1.8,7.4-3,11.5-3.5c0.1-0.3,0.3-0.5,0.4-0.8c-3.7-1-7.4-2-11.1-3.1  c-1.5-2.9-2.1-6.9-2.7-10.7c-0.5-0.3-1-0.5-1.5-0.8c-0.8,3.6-1.5,7.2-2.3,10.7c-2.8,1.6-7.1,2.9-11.1,3.1  C55.8,69.8,55.5,70.2,55.2,70.6z"/>
</svg>